<svg width="25" height="25" viewBox="0 0 25 25" fill="none" xmlns="http://www.w3.org/2000/svg">
<path d="M0 0H24.6541V24.6541H0V0Z" fill="white" fill-opacity="0.01"/>
<path d="M2.05469 9.74159C2.35711 9.45498 2.66859 9.18343 2.98815 8.92692C8.7509 4.30172 17.1461 4.57327 22.5998 9.74159" stroke="#23402A" stroke-width="1.61216" stroke-linecap="round" stroke-linejoin="round"/>
<path d="M19.5183 13.251C15.5469 9.27962 9.10809 9.27962 5.13672 13.251" stroke="#23402A" stroke-width="1.61216" stroke-linecap="round" stroke-linejoin="round"/>
<path d="M16.4358 16.5975C14.1665 14.3282 10.4871 14.3282 8.21777 16.5975" stroke="#23402A" stroke-width="1.61216" stroke-linecap="round" stroke-linejoin="round"/>
<path d="M13.3611 19.2616C13.3611 19.8327 12.8981 20.2957 12.327 20.2957C11.7559 20.2957 11.293 19.8327 11.293 19.2616C11.293 18.6905 11.7559 18.2275 12.327 18.2275C12.8981 18.2275 13.3611 18.6905 13.3611 19.2616Z" fill="#EFF299" stroke="#23402A" stroke-width="0.5"/>
</svg>
