<svg width="28" height="28" viewBox="0 0 28 28" fill="none" xmlns="http://www.w3.org/2000/svg">
<path d="M0 0H27.7541V27.7541H0V0Z" fill="white" fill-opacity="0.01"/>
<path fill-rule="evenodd" clip-rule="evenodd" d="M7.80588 18.5024C8.60421 18.5024 9.2514 17.8552 9.2514 17.0569C9.2514 16.2585 8.60421 15.6113 7.80588 15.6113C7.00754 15.6113 6.36035 16.2585 6.36035 17.0569C6.36035 17.8552 7.00754 18.5024 7.80588 18.5024Z" fill="#112619"/>
<path fill-rule="evenodd" clip-rule="evenodd" d="M19.9485 18.5024C20.7468 18.5024 21.394 17.8552 21.394 17.0569C21.394 16.2585 20.7468 15.6113 19.9485 15.6113C19.1501 15.6113 18.5029 16.2585 18.5029 17.0569C18.5029 17.8552 19.1501 18.5024 19.9485 18.5024Z" fill="#112619"/>
<path d="M4.04811 21.3932C3.0901 21.3932 2.31348 20.6167 2.31348 19.6586V14.2869C2.31348 12.9724 3.05639 11.7707 4.23232 11.1833L4.62662 10.9863L5.96227 5.25654C6.20633 4.20953 7.13962 3.46875 8.21468 3.46875H19.5986C20.6817 3.46875 21.6198 4.22041 21.8559 5.27748L23.1308 10.9863L23.5242 11.183C24.6994 11.7707 25.4419 12.9719 25.4419 14.286V19.6586C25.4419 20.6167 24.6653 21.3932 23.7072 21.3932H22.5526V21.9715C22.5526 23.2488 21.5162 24.2843 20.2389 24.2843C18.9615 24.2843 17.9251 23.2488 17.9251 21.9715V21.3932H9.8302V21.9716C9.8302 23.2489 8.7948 24.2843 7.51754 24.2843C6.24027 24.2843 5.20483 23.2489 5.20483 21.9716V21.3932H4.04811Z" fill="#23402A" stroke="#112619" stroke-linejoin="round"/>
<path d="M8.0957 12.7205H19.6599L18.7047 8.42214C18.5871 7.89307 18.1179 7.5166 17.5759 7.5166H10.1797C9.63773 7.5166 9.16846 7.89307 9.05091 8.42214L8.0957 12.7205Z" fill="#EFF299" stroke="white" stroke-linejoin="round"/>
</svg>
