<svg width="24" height="24" viewBox="0 0 24 24" fill="none" xmlns="http://www.w3.org/2000/svg">
<path d="M0 0H23.4074V23.4074H0V0Z" fill="white" fill-opacity="0.01"/>
<path d="M18.531 1.95117H4.87667C4.33803 1.95117 3.90137 2.38783 3.90137 2.92648V20.482C3.90137 21.0207 4.33803 21.4573 4.87667 21.4573H18.531C19.0696 21.4573 19.5063 21.0207 19.5063 20.482V2.92648C19.5063 2.38783 19.0696 1.95117 18.531 1.95117Z" stroke="#23402A" stroke-width="1.54939"/>
<path d="M3.90137 5.8524C3.90137 6.39106 4.33803 6.82771 4.87667 6.82771H18.531C19.0696 6.82771 19.5063 6.39106 19.5063 5.8524V2.92648C19.5063 2.38783 19.0696 1.95117 18.531 1.95117H4.87667C4.33803 1.95117 3.90137 2.38783 3.90137 2.92648V5.8524Z" fill="#EFF299" stroke="#23402A" stroke-width="1.54939"/>
<path d="M6.82785 5.3637C7.36649 5.3637 7.80315 4.92704 7.80315 4.38839C7.80315 3.84975 7.36649 3.41309 6.82785 3.41309C6.2892 3.41309 5.85254 3.84975 5.85254 4.38839C5.85254 4.92704 6.2892 5.3637 6.82785 5.3637Z" fill="#23402A"/>
<path d="M9.75363 5.3637C10.2923 5.3637 10.7289 4.92704 10.7289 4.38839C10.7289 3.84975 10.2923 3.41309 9.75363 3.41309C9.21498 3.41309 8.77832 3.84975 8.77832 4.38839C8.77832 4.92704 9.21498 5.3637 9.75363 5.3637Z" fill="#23402A"/>
<path d="M11.7036 17.5557C13.5889 17.5557 15.1172 16.0274 15.1172 14.1421C15.1172 12.2568 13.5889 10.7285 11.7036 10.7285C9.81835 10.7285 8.29004 12.2568 8.29004 14.1421C8.29004 16.0274 9.81835 17.5557 11.7036 17.5557Z" fill="#EFF299" stroke="#23402A" stroke-width="1.54939"/>
</svg>
